<?xml version="1.0" standalone="no"?><!DOCTYPE svg PUBLIC "-//W3C//DTD SVG 1.1//EN" "http://www.w3.org/Graphics/SVG/1.1/DTD/svg11.dtd"><svg class="icon" width="200px" height="200.00px" viewBox="0 0 1024 1024" version="1.1" xmlns="http://www.w3.org/2000/svg"><path fill="#333333" d="M766.2 514.8c1.2-10.8 1.8-20 1.8-27.6 0-39.2-6.6-39.4-32-39.4l-151 0c14.6-24 23-48.8 23-74 0-75.8-114.6-112.8-114.6-176 0-23.4 10.2-42.6 18.6-69.8-53 14-94.8 67-94.8 123.2 0 96.6 112.6 97.4 112.6 169.6 0 9-2.8 17-4.2 27l-111.8 0c1.6-6 2.6-12.4 2.6-18.6 0-45.6-78.2-67.8-78.2-105.6 0-14 2-25.6 6.4-42-25.8 10.2-56.6 40-56.6 73.6 0 53.4 63.8 58.6 73.6 92.6L160 447.8c-25.4 0-32 0.2-32 39.4 0 39.2 15.4 122.6 56.6 222 41.2 99.4 88.8 143.2 122.4 172.4l0.2-0.4c10.2 9.2 23.6 14.6 38.4 14.6l204.8 0c14.8 0 28.2-5.4 38.4-14.6l0.2 0.4c18-15.6 40-35.6 62.8-65.8 9.4 4 19.6 7.4 30.8 10 16.8 4 33.6 6 49.6 6 48 0 91.2-18.4 121.6-51.6 26.8-29.2 42.2-68.8 42.2-108.4C896 594 840 529 766.2 514.8zM732.2 768.4c-17.2 0-31.2-2.4-44.2-8.4 8-16 15.8-31.8 23.4-50.2 20.2-48.8 34.2-94 43.2-131.6 44 8.6 77.4 47.6 77.4 94.2C832 717.8 797.6 768.4 732.2 768.4z" /></svg>